# xmcd
#
# Track frame offsets:
#      150
#      14580
#      31094
#      45538
#      66274
#      81837
#      98555
#      117411
#      132599
#      152003
#      172539
#      191328
#
# Disc length: 2824 seconds
#
# Revision: 0
# Processed by: cddbd v1.5.1PL0 Copyright (c) Steve Scherf et al.
# Submitted via: SoundClick v1.0
#
DISCID=8f0b060c
DTITLE=Heritage Road - Heritage Road
DYEAR=1900
DGENRE=
TTITLE0=Never Walk Alone
TTITLE1=Rescue Me
TTITLE2=I Know Where I'm Going
TTITLE3=Smooth Sailing
TTITLE4=Only You
TTITLE5=She Misses Him On Sunday
TTITLE6=I Can Only Imagine
TTITLE7=Tell Me The Story
TTITLE8=Rise Above It All
TTITLE9=More Than Enough
TTITLE10=Rock Of Refuge
TTITLE11=Above All
EXTD=
EXTT0=
EXTT1=
EXTT2=
EXTT3=
EXTT4=
EXTT5=
EXTT6=
EXTT7=
EXTT8=
EXTT9=
EXTT10=
EXTT11=
PLAYORDER=
